<svg width="76" height="76" viewBox="0 0 76 76" fill="none" xmlns="http://www.w3.org/2000/svg">
<g filter="url(#filter0_dii_2_125)">
<mask id="path-1-inside-1_2_125" fill="white">
<path fill-rule="evenodd" clip-rule="evenodd" d="M10.2212 25.974C9.04966 27.1455 9.04965 29.045 10.2212 30.2166L26.0952 46.0906L20.1851 52.0006C18.3433 53.8425 19.5626 56.9953 22.1644 57.1186L55.5631 58.7018C57.3301 58.7855 58.7855 57.3301 58.7018 55.5631L57.1186 22.1644C56.9953 19.5626 53.8425 18.3433 52.0006 20.1851L46.0906 26.0952L30.2166 10.2212C29.045 9.04964 27.1455 9.04964 25.974 10.2212L10.2212 25.974Z"/>
</mask>
<path fill-rule="evenodd" clip-rule="evenodd" d="M10.2212 25.974C9.04966 27.1455 9.04965 29.045 10.2212 30.2166L26.0952 46.0906L20.1851 52.0006C18.3433 53.8425 19.5626 56.9953 22.1644 57.1186L55.5631 58.7018C57.3301 58.7855 58.7855 57.3301 58.7018 55.5631L57.1186 22.1644C56.9953 19.5626 53.8425 18.3433 52.0006 20.1851L46.0906 26.0952L30.2166 10.2212C29.045 9.04964 27.1455 9.04964 25.974 10.2212L10.2212 25.974Z" fill="#FBFBFD"/>
<path d="M26.0952 46.0906L26.8023 46.7977L27.5094 46.0906L26.8023 45.3834L26.0952 46.0906ZM20.1851 52.0006L20.8922 52.7077L20.8922 52.7077L20.1851 52.0006ZM22.1644 57.1186L22.117 58.1175L22.117 58.1175L22.1644 57.1186ZM55.5631 58.7018L55.5157 59.7007L55.5631 58.7018ZM58.7018 55.5631L57.7029 55.6104L58.7018 55.5631ZM57.1186 22.1644L58.1175 22.117L57.1186 22.1644ZM46.0906 26.0952L45.3835 26.8023L46.0906 27.5094L46.7977 26.8023L46.0906 26.0952ZM10.9283 29.5095C10.1473 28.7284 10.1473 27.4621 10.9283 26.6811L9.51412 25.2669C7.95203 26.829 7.95202 29.3616 9.51412 30.9237L10.9283 29.5095ZM26.8023 45.3834L10.9283 29.5095L9.51412 30.9237L25.3881 46.7977L26.8023 45.3834ZM20.8922 52.7077L26.8023 46.7977L25.3881 45.3834L19.478 51.2935L20.8922 52.7077ZM22.2117 56.1197C20.4772 56.0375 19.6643 53.9356 20.8922 52.7077L19.478 51.2935C17.0222 53.7493 18.6479 57.953 22.117 58.1175L22.2117 56.1197ZM55.6104 57.7029L22.2117 56.1197L22.117 58.1175L55.5157 59.7007L55.6104 57.7029ZM57.7029 55.6104C57.7587 56.7884 56.7884 57.7587 55.6104 57.7029L55.5157 59.7007C57.8717 59.8123 59.8123 57.8717 59.7007 55.5157L57.7029 55.6104ZM56.1197 22.2117L57.7029 55.6104L59.7007 55.5157L58.1175 22.117L56.1197 22.2117ZM52.7078 20.8922C53.9356 19.6643 56.0375 20.4772 56.1197 22.2117L58.1175 22.117C57.953 18.6479 53.7493 17.0222 51.2935 19.478L52.7078 20.8922ZM46.7977 26.8023L52.7078 20.8922L51.2935 19.478L45.3835 25.3881L46.7977 26.8023ZM29.5095 10.9283L45.3835 26.8023L46.7977 25.3881L30.9237 9.51411L29.5095 10.9283ZM26.6811 10.9283C27.4621 10.1473 28.7285 10.1473 29.5095 10.9283L30.9237 9.51411C29.3616 7.95201 26.829 7.95201 25.2669 9.51411L26.6811 10.9283ZM10.9283 26.6811L26.6811 10.9283L25.2669 9.51411L9.51412 25.2669L10.9283 26.6811Z" fill="white" mask="url(#path-1-inside-1_2_125)"/>
</g>
<defs>
<filter id="filter0_dii_2_125" x="5.34256" y="7.74253" width="57.3627" height="58.9627" filterUnits="userSpaceOnUse" color-interpolation-filters="sRGB">
<feFlood flood-opacity="0" result="BackgroundImageFix"/>
<feColorMatrix in="SourceAlpha" type="matrix" values="0 0 0 0 0 0 0 0 0 0 0 0 0 0 0 0 0 0 127 0" result="hardAlpha"/>
<feOffset dy="4"/>
<feGaussianBlur stdDeviation="2"/>
<feComposite in2="hardAlpha" operator="out"/>
<feColorMatrix type="matrix" values="0 0 0 0 0 0 0 0 0 0 0 0 0 0 0 0 0 0 0.25 0"/>
<feBlend mode="normal" in2="BackgroundImageFix" result="effect1_dropShadow_2_125"/>
<feBlend mode="normal" in="SourceGraphic" in2="effect1_dropShadow_2_125" result="shape"/>
<feColorMatrix in="SourceAlpha" type="matrix" values="0 0 0 0 0 0 0 0 0 0 0 0 0 0 0 0 0 0 127 0" result="hardAlpha"/>
<feOffset dy="-3"/>
<feGaussianBlur stdDeviation="0.8"/>
<feComposite in2="hardAlpha" operator="arithmetic" k2="-1" k3="1"/>
<feColorMatrix type="matrix" values="0 0 0 0 0 0 0 0 0 0 0 0 0 0 0 0 0 0 0.25 0"/>
<feBlend mode="normal" in2="shape" result="effect2_innerShadow_2_125"/>
<feColorMatrix in="SourceAlpha" type="matrix" values="0 0 0 0 0 0 0 0 0 0 0 0 0 0 0 0 0 0 127 0" result="hardAlpha"/>
<feOffset dy="1"/>
<feGaussianBlur stdDeviation="1.5"/>
<feComposite in2="hardAlpha" operator="arithmetic" k2="-1" k3="1"/>
<feColorMatrix type="matrix" values="0 0 0 0 1 0 0 0 0 1 0 0 0 0 1 0 0 0 1 0"/>
<feBlend mode="normal" in2="effect2_innerShadow_2_125" result="effect3_innerShadow_2_125"/>
</filter>
</defs>
</svg>
