<svg width="76" height="71" viewBox="0 0 76 71" fill="none" xmlns="http://www.w3.org/2000/svg">
<path d="M5 45.579C5 31.5393 16.3814 20.1579 30.4211 20.1579C44.4607 20.1579 55.8421 31.5393 55.8421 45.579V67.7199C55.8421 69.5314 54.3735 71 52.562 71H30.421C16.3814 71 5 59.6186 5 45.579Z" fill="#313131"/>
<path d="M0 40.9097C0 24.2914 13.4719 10.8195 30.0902 10.8195C46.7086 10.8195 60.1805 24.2914 60.1805 40.9097C60.1805 57.5281 46.7086 71 30.0902 71C13.4719 71 0 57.5281 0 40.9097Z" fill="#313131"/>
<path d="M7 40.9098C7 28.0162 17.4523 17.5639 30.3459 17.5639C43.2394 17.5639 53.6917 28.0162 53.6917 40.9098C53.6917 53.8033 43.2394 64.2556 30.3459 64.2556C17.4523 64.2556 7 53.8033 7 40.9098Z" fill="#F5F5F7"/>
<path d="M14 55.4435C14 38.6637 27.6028 25.0609 44.3826 25.0609C45.1089 25.0609 45.6977 25.6497 45.6977 26.376C45.6977 43.1558 32.0949 56.7586 15.3151 56.7586C14.5888 56.7586 14 56.1698 14 55.4435Z" fill="#313131"/>
<path d="M23 40.9098C23 36.8984 26.2518 33.6466 30.2632 33.6466C34.2745 33.6466 37.5263 36.8984 37.5263 40.9098C37.5263 44.9211 34.2745 48.1729 30.2632 48.1729C26.2518 48.1729 23 44.9211 23 40.9098Z" fill="#F5F5F7"/>
<path d="M65.8294 2.52V1.11H73.3894V2.52L70.8394 2.91V21.12H69.0694L57.7594 5.58V19.17L61.0594 19.59V21H53.4994V19.59L56.0494 19.23V3.21L55.6894 2.73L53.5894 2.52V1.11H59.2594L69.1294 14.67V2.91L65.8294 2.52Z" fill="#B94B24"/>
</svg>
